simulation
nRows=61
nColumns=15
endheader
time  TH_x TH_y TH_z SC_y  SC_z  SC_x  AC_y  AC_z  AC_x  GH_y  GH_z  GH_yy  EL_x  PS_y
0.750033  0.000000  0.000000  0.000000  -14.917069  16.928694  21.578947  34.320780  -15.323346  -20.130750  104.234916  16.364766  7.661170  24.977604  119.420650
0.750077  0.000000  0.000000  0.000000  -14.917069  16.928694  24.736842  33.559178  -17.086820  -22.858915  104.234916  16.364766  7.661170  24.977604  119.420650
0.750122  0.000000  0.000000  0.000000  -14.917069  16.928694  27.894737  32.702265  -18.813112  -25.638649  104.234916  16.364766  7.661170  24.977604  119.420650
0.750166  0.000000  0.000000  0.000000  -14.917069  16.928694  31.052632  31.747845  -20.497410  -28.475312  104.234916  16.364766  7.661170  24.977604  119.420650
0.750210  0.000000  0.000000  0.000000  -14.917069  16.928694  34.210526  30.693788  -22.134637  -31.374127  104.234916  16.364766  7.661170  24.977604  119.420650
0.750254  0.000000  0.000000  0.000000  -14.917069  16.928694  37.368421  29.538075  -23.719498  -34.340002  104.234916  16.364766  7.661170  24.977604  119.420650
0.750299  0.000000  0.000000  0.000000  -14.917069  16.928694  40.526316  28.278915  -25.246452  -37.377492  104.234916  16.364766  7.661170  24.977604  119.420650
0.750343  0.000000  0.000000  0.000000  -14.917069  16.928694  43.684211  26.914871  -26.709751  -40.490657  104.234916  16.364766  7.661170  24.977604  119.420650
0.750387  0.000000  0.000000  0.000000  -14.917069  16.928694  46.842105  25.445084  -28.103374  -43.682870  104.234916  16.364766  7.661170  24.977604  119.420650
0.750431  0.000000  0.000000  0.000000  -14.917069  16.928694  50.000000  23.869329  -29.421213  -46.956779  104.234916  16.364766  7.661170  24.977604  119.420650
0.750476  0.000000  0.000000  0.000000  -30.383633  12.432960  -10.000000  41.805463  29.536895  13.650601  94.070742  -1.410150  30.560971  20.462900  118.281359
0.750520  0.000000  0.000000  0.000000  -30.383633  12.432960  -6.842105  43.069688  27.405567  10.999487  94.070742  -1.410150  30.560971  20.462900  118.281359
0.750564  0.000000  0.000000  0.000000  -30.383633  12.432960  -3.684211  44.200355  25.226028  8.449824  94.070742  -1.410150  30.560971  20.462900  118.281359
0.750608  0.000000  0.000000  0.000000  -30.383633  12.432960  -0.526316  45.205357  23.004300  5.990808  94.070742  -1.410150  30.560971  20.462900  118.281359
0.750653  0.000000  0.000000  0.000000  -30.383633  12.432960  2.631579  46.091902  20.745849  3.612112  94.070742  -1.410150  30.560971  20.462900  118.281359
0.750697  0.000000  0.000000  0.000000  -30.383633  12.432960  5.789474  46.866471  18.455657  1.303903  94.070742  -1.410150  30.560971  20.462900  118.281359
0.750741  0.000000  0.000000  0.000000  -30.383633  12.432960  8.947368  47.534794  16.138280  -0.943160  94.070742  -1.410150  30.560971  20.462900  118.281359
0.750785  0.000000  0.000000  0.000000  -30.383633  12.432960  12.105263  48.101849  13.797923  -3.137967  94.070742  -1.410150  30.560971  20.462900  118.281359
0.750830  0.000000  0.000000  0.000000  -30.383633  12.432960  15.263158  48.571897  11.438485  -5.288986  94.070742  -1.410150  30.560971  20.462900  118.281359
0.750874  0.000000  0.000000  0.000000  -30.383633  12.432960  18.421053  48.948475  9.063608  -7.404329  94.070742  -1.410150  30.560971  20.462900  118.281359
0.750918  0.000000  0.000000  0.000000  -30.383633  12.432960  21.578947  49.234404  6.676744  -9.491803  94.070742  -1.410150  30.560971  20.462900  118.281359
0.750962  0.000000  0.000000  0.000000  -30.383633  12.432960  24.736842  49.431836  4.281192  -11.558971  94.070742  -1.410150  30.560971  20.462900  118.281359
0.751007  0.000000  0.000000  0.000000  -30.383633  12.432960  27.894737  49.542276  1.880108  -13.613219  94.070742  -1.410150  30.560971  20.462900  118.281359
0.751051  0.000000  0.000000  0.000000  -30.383633  12.432960  31.052632  49.566540  -0.523375  -15.661824  94.070742  -1.410150  30.560971  20.462900  118.281359
0.751095  0.000000  0.000000  0.000000  -30.383633  12.432960  34.210526  49.504811  -2.926189  -17.711995  94.070742  -1.410150  30.560971  20.462900  118.281359
0.751139  0.000000  0.000000  0.000000  -30.383633  12.432960  37.368421  49.356633  -5.325249  -19.770969  94.070742  -1.410150  30.560971  20.462900  118.281359
0.751184  0.000000  0.000000  0.000000  -30.383633  12.432960  40.526316  49.120883  -7.717416  -21.846064  94.070742  -1.410150  30.560971  20.462900  118.281359
0.751228  0.000000  0.000000  0.000000  -30.383633  12.432960  43.684211  48.795797  -10.099464  -23.944725  94.070742  -1.410150  30.560971  20.462900  118.281359
0.751272  0.000000  0.000000  0.000000  -30.383633  12.432960  46.842105  48.378891  -12.468063  -26.074637  94.070742  -1.410150  30.560971  20.462900  118.281359
0.751316  0.000000  0.000000  0.000000  -30.383633  12.432960  50.000000  47.867072  -14.819654  -28.243708  94.070742  -1.410150  30.560971  20.462900  118.281359
0.751361  0.000000  0.000000  0.000000  -34.485778  10.504237  -10.000000  42.113546  25.650209  7.863842  75.571862  4.550052  5.811493  21.421201  112.368878
0.751405  0.000000  0.000000  0.000000  -34.485778  10.504237  -6.842105  43.176357  23.510492  5.309639  75.571862  4.550052  5.811493  21.421201  112.368878
0.751449  0.000000  0.000000  0.000000  -34.485778  10.504237  -3.684211  44.119387  21.330473  2.837871  75.571862  4.550052  5.811493  21.421201  112.368878
0.751493  0.000000  0.000000  0.000000  -34.485778  10.504237  -0.526316  44.948856  19.115390  0.439064  75.571862  4.550052  5.811493  21.421201  112.368878
0.751538  0.000000  0.000000  0.000000  -34.485778  10.504237  2.631579  45.670348  16.870054  -1.895871  75.571862  4.550052  5.811493  21.421201  112.368878
0.751582  0.000000  0.000000  0.000000  -34.485778  10.504237  5.789474  46.288753  14.598938  -4.175627  75.571862  4.550052  5.811493  21.421201  112.368878
0.751626  0.000000  0.000000  0.000000  -34.485778  10.504237  8.947368  46.808389  12.306142  -6.408564  75.571862  4.550052  5.811493  21.421201  112.368878
0.751670  0.000000  0.000000  0.000000  -34.485778  10.504237  12.105263  47.232856  9.995541  -8.602692  75.571862  4.550052  5.811493  21.421201  112.368878
0.751715  0.000000  0.000000  0.000000  -34.485778  10.504237  15.263158  47.565117  7.670782  -10.765746  75.571862  4.550052  5.811493  21.421201  112.368878
0.751759  0.000000  0.000000  0.000000  -34.485778  10.504237  18.421053  47.807503  5.335342  -12.905228  75.571862  4.550052  5.811493  21.421201  112.368878
0.751803  0.000000  0.000000  0.000000  -34.485778  10.504237  21.578947  47.961725  2.992558  -15.028452  75.571862  4.550052  5.811493  21.421201  112.368878
0.751847  0.000000  0.000000  0.000000  -34.485778  10.504237  24.736842  48.028858  0.645692  -17.142605  75.571862  4.550052  5.811493  21.421201  112.368878
0.751892  0.000000  0.000000  0.000000  -34.485778  10.504237  27.894737  48.009381  -1.702051  -19.254806  75.571862  4.550052  5.811493  21.421201  112.368878
0.751936  0.000000  0.000000  0.000000  -34.485778  10.504237  31.052632  47.903155  -4.047478  -21.372161  75.571862  4.550052  5.811493  21.421201  112.368878
0.751980  0.000000  0.000000  0.000000  -34.485778  10.504237  34.210526  47.709433  -6.387364  -23.501803  75.571862  4.550052  5.811493  21.421201  112.368878
0.752024  0.000000  0.000000  0.000000  -34.485778  10.504237  37.368421  47.426854  -8.718419  -25.650974  75.571862  4.550052  5.811493  21.421201  112.368878
0.752069  0.000000  0.000000  0.000000  -34.485778  10.504237  40.526316  47.053437  -11.037237  -27.827063  75.571862  4.550052  5.811493  21.421201  112.368878
0.752113  0.000000  0.000000  0.000000  -34.485778  10.504237  43.684211  46.586541  -13.340300  -30.037693  75.571862  4.550052  5.811493  21.421201  112.368878
0.752157  0.000000  0.000000  0.000000  -34.485778  10.504237  46.842105  46.022936  -15.623842  -32.290691  75.571862  4.550052  5.811493  21.421201  112.368878
0.752201  0.000000  0.000000  0.000000  -34.485778  10.504237  50.000000  45.358709  -17.883883  -34.594223  75.571862  4.550052  5.811493  21.421201  112.368878
0.752246  0.000000  0.000000  0.000000  -34.242544  11.072784  -10.000000  44.605365  18.543806  15.226006  43.250807  22.493497  -39.901500  21.059616  111.089498
0.752290  0.000000  0.000000  0.000000  -34.242544  11.072784  -6.842105  45.307052  16.312216  12.883937  43.250807  22.493497  -39.901500  21.059616  111.089498
0.752334  0.000000  0.000000  0.000000  -34.242544  11.072784  -3.684211  45.906760  14.055410  10.594972  43.250807  22.493497  -39.901500  21.059616  111.089498
0.752378  0.000000  0.000000  0.000000  -34.242544  11.072784  -0.526316  46.408532  11.777484  8.350929  43.250807  22.493497  -39.901500  21.059616  111.089498
0.752423  0.000000  0.000000  0.000000  -34.242544  11.072784  2.631579  46.815772  9.482290  6.143930  43.250807  22.493497  -39.901500  21.059616  111.089498
0.752467  0.000000  0.000000  0.000000  -34.242544  11.072784  5.789474  47.131267  7.173467  3.966367  43.250807  22.493497  -39.901500  21.059616  111.089498
0.752511  0.000000  0.000000  0.000000  -34.242544  11.072784  8.947368  47.357180  4.854494  1.810836  43.250807  22.493497  -39.901500  21.059616  111.089498
0.752555  0.000000  0.000000  0.000000  -34.242544  11.072784  12.105263  47.495057  2.528732  -0.329904  43.250807  22.493497  -39.901500  21.059616  111.089498
0.752600  0.000000  0.000000  0.000000  -34.242544  11.072784  15.263158  47.545852  0.199455  -2.462969  43.250807  22.493497  -39.901500  21.059616  111.089498
0.752644  0.000000  0.000000  0.000000  -34.242544  11.072784  18.421053  47.509914  -2.130090  -4.595445  43.250807  22.493497  -39.901500  21.059616  111.089498
0.752688  0.000000  0.000000  0.000000  -34.242544  11.072784  21.578947  47.386994  -4.456687  -6.734362  43.250807  22.493497  -39.901500  21.059616  111.089498
